#!OML:ASF F:\VICON\USERDATA\INSTALL\rory3\rory3.ASF
:FULLY-SPECIFIED
:DEGREES
562
root 0.514019 15.8742 3.88871 6.07503 -46.4629 12.3999
lowerback 0.175833 6.99486 7.64526
upperback 4.14605 9.2975 -3.24961
thorax 6.05177 5.05486 -7.06321
lowerneck -5.26871 -3.27283 -8.90834
upperneck 53.6324 -5.77164 2.11363
head 25.7429 -3.99827 1.80133
rclavicle 3.33958e-014 -2.06736e-014
rhumerus -34.3888 40.4367 -107.318
rradius 49.4477
rwrist -8.0937
rhand -18.2599 -44.0543
rfingers 7.12502
rthumb 8.01952 -73.8822
lclavicle 3.33958e-014 -2.06736e-014
lhumerus -13.9764 -69.5735 87.4387
lradius 94.9173
lwrist 37.8094
lhand -13.235 -23.9837
lfingers 7.12502
lthumb 12.8667 5.5997
rfemur -55.7578 -1.85397 9.39604
rtibia 82.5862
rfoot -10.2733 -18.4889
rtoes -26.9132
lfemur -45.6188 -21.4767 -29.5935
ltibia 54.8241
lfoot -22.6695 -0.357204
ltoes 12.7212
563
root 0.52774 15.8443 3.83694 6.59121 -46.0859 11.8014
lowerback 0.983562 7.14186 7.73987
upperback 4.16653 9.54229 -3.26596
thorax 5.6832 5.17202 -7.21089
lowerneck -5.68862 -3.61818 -8.48084
upperneck 53.3922 -6.58384 2.52866
head 25.7787 -4.14054 1.79162
rclavicle 4.77083e-015 6.36111e-015
rhumerus -33.4782 39.5167 -106.673
rradius 49.7507
rwrist -7.74845
rhand -18.1468 -43.7149
rfingers 7.12502
rthumb 8.12862 -73.5386
lclavicle 4.77083e-015 6.36111e-015
lhumerus -12.4494 -70.7909 86.1227
lradius 95.0122
lwrist 38.0628
lhand -12.9349 -23.6952
lfingers 7.12502
lthumb 13.1559 5.8698
rfemur -56.2472 -1.79819 10.0039
rtibia 82.8269
rfoot -10.4362 -18.4889
rtoes -26.129
lfemur -46.1876 -21.2048 -29.0368
ltibia 55.059
lfoot -22.3778 -1.05732
ltoes 14.1025
564
root 0.516942 15.8748 3.90562 5.81553 -46.537 12.8177
lowerback 0.107111 7.58613 7.38122
upperback 4.66391 10.1094 -3.67182
thorax 6.84521 5.50639 -7.22526
lowerneck -5.9271 -3.89043 -8.00269
upperneck 52.9818 -7.23849 2.85993
head 25.4578 -4.21949 1.75037
rclavicle 5.1684e-014 -1.11319e-014
rhumerus -32.6087 38.8181 -106.132
rradius 50.0383
rwrist -7.41274
rhand -18.0034 -43.4552
rfingers 7.12502
rthumb 8.26704 -73.2734
lclavicle 5.1684e-014 -1.11319e-014
lhumerus -10.2512 -71.8198 84.0127
lradius 95.177
lwrist 38.8566
lhand -14.4948 -24.545
lfingers 7.12502
lthumb 11.6519 5.11097
rfemur -55.7653 -2.00797 8.92769
rtibia 82.7462
rfoot -11.0264 -17.4949
rtoes -26.2341
lfemur -45.516 -21.3875 -30.1313
ltibia 54.8963
lfoot -22.6666 -0.508753
ltoes 15.0646
565
root 0.522949 15.8689 3.90413 5.90462 -46.3887 12.8383
lowerback -0.240933 7.15907 7.75921
upperback 4.44009 9.50061 -3.51877
thorax 6.72024 5.20437 -7.31206
lowerneck -5.04131 -3.31233 -9.06095
upperneck 53.0687 -6.16745 3.02357
head 25.1006 -4.06779 2.3007
rclavicle -3.65764e-014 1.59028e-014
rhumerus -34.1185 40.0303 -107.131
rradius 50.5121
rwrist -7.20582
rhand -17.7406 -43.8405
rfingers 7.12502
rthumb 8.52069 -73.6485
lclavicle -3.65764e-014 1.59028e-014
lhumerus -13.166 -70.6849 86.6468
lradius 95.3439
lwrist 39.1302
lhand -10.8335 -23.8248
lfingers 7.12502
lthumb 15.1808 5.59832
rfemur -55.9127 -2.10936 8.83475
rtibia 82.8631
rfoot -11.623 -17.1877
rtoes -24.8046
lfemur -45.6478 -21.4745 -30.1235
ltibia 54.8852
lfoot -22.6181 -0.650124
ltoes 15.3387
566
root 0.526139 15.8654 3.90119 5.95884 -46.2662 12.9081
lowerback -0.428464 6.99372 7.72055
upperback 4.37097 9.26281 -3.4093
thorax 6.67677 5.07492 -7.18438
lowerneck -4.80163 -3.11884 -9.31491
upperneck 53.1834 -5.7152 2.81229
head 25.0508 -3.9833 2.3219
rclavicle 7.71285e-014 -3.18055e-015
rhumerus -34.8162 40.4849 -107.481
rradius 51.1177
rwrist -6.9801
rhand -17.8572 -44.2027
rfingers 7.12502
rthumb 8.40813 -74.0153
lclavicle 7.71285e-014 -3.18055e-015
lhumerus -14.2694 -70.2782 87.7384
lradius 95.5107
lwrist 39.2929
lhand -11.1876 -22.7679
lfingers 7.12502
lthumb 14.8397 6.68067
rfemur -56.048 -2.17348 8.71456
rtibia 82.9307
rfoot -11.8909 -17.2201
rtoes -23.6457
lfemur -45.7274 -21.6043 -30.1303
ltibia 54.7918
lfoot -22.5687 -0.672223
ltoes 15.3581
567
root 0.526451 15.8634 3.90157 5.92057 -46.2747 13.0134
lowerback -0.399986 7.15179 7.54739
upperback 4.50153 9.48314 -3.46737
thorax 6.82539 5.18712 -7.11917
lowerneck -5.03041 -3.32468 -8.86148
upperneck 53.0933 -6.00908 2.57142
head 25.019 -4.00069 2.02302
rclavicle -1.76521e-013 -1.27222e-014
rhumerus -34.5122 40.1478 -107.198
rradius 51.6264
rwrist -6.94348
rhand -18.2005 -44.0706
rfingers 7.12502
rthumb 8.07683 -73.8962
lclavicle -1.76521e-013 -1.27222e-014
lhumerus -13.6142 -70.808 87.1959
lradius 95.6633
lwrist 39.6959
lhand -12.2805 -22.7127
lfingers 7.12502
lthumb 13.7867 6.81048
rfemur -56.154 -2.19279 8.66265
rtibia 82.9816
rfoot -11.243 -17.6801
rtoes -25.1248
lfemur -45.8025 -21.6586 -30.2024
ltibia 54.9025
lfoot -22.6522 -0.454006
ltoes 14.9856
568
root 0.530041 15.8627 3.89967 6.23919 -46.3071 12.5289
lowerback -0.0643762 7.47727 7.70871
upperback 4.75875 9.93596 -3.54216
thorax 7.04944 5.44085 -7.25558
lowerneck -5.7776 -3.78616 -8.02875
upperneck 52.917 -6.86482 2.51276
head 25.1914 -4.11346 1.62985
rclavicle -1.17681e-013 1.27222e-014
rhumerus -33.4373 39.3508 -106.508
rradius 51.9889
rwrist -6.99562
rhand -18.225 -43.9291
rfingers 7.12502
rthumb 8.05322 -73.7557
lclavicle -1.17681e-013 1.27222e-014
lhumerus -10.773 -72.0586 84.4604
lradius 95.8097
lwrist 40.2428
lhand -14.0098 -23.8384
lfingers 7.12502
lthumb 12.1196 5.79054
rfemur -56.166 -2.07632 9.13672
rtibia 82.92
rfoot -10.1796 -18.3439
rtoes -27.5571
lfemur -45.8646 -21.5092 -29.8766
ltibia 54.9933
lfoot -22.6278 -0.381461
ltoes 14.8609
569
root 0.543818 15.8436 3.86509 6.74132 -45.9985 11.7875
lowerback 0.506707 7.32095 8.21643
upperback 4.56818 9.74297 -3.37204
thorax 6.53929 5.34226 -7.46541
lowerneck -5.49329 -3.72081 -8.13355
upperneck 52.9509 -6.75251 2.50148
head 25.0895 -4.10149 1.67462
rclavicle -4.77083e-015 -4.29375e-014
rhumerus -34.0193 39.4867 -106.881
rradius 52.4523
rwrist -6.92311
rhand -18.1208 -43.7877
rfingers 7.12502
rthumb 8.15374 -73.6104
lclavicle -4.77083e-015 -4.29375e-014
lhumerus -11.6182 -72.248 85.1991
lradius 95.9345
lwrist 40.6311
lhand -14.0466 -23.5516
lfingers 7.12502
lthumb 12.0842 6.07947
rfemur -56.3461 -2.0295 9.87143
rtibia 82.9912
rfoot -9.64339 -18.8066
rtoes -28.3077
lfemur -46.2275 -21.2412 -29.3314
ltibia 55.2293
lfoot -22.5087 -0.540167
ltoes 14.3903
570
root 0.542786 15.8529 3.89579 6.21536 -46.0837 12.5226
lowerback 0.0799209 7.27582 7.99774
upperback 4.5817 9.66541 -3.46313
thorax 6.75823 5.30346 -7.39453
lowerneck -5.13506 -3.59769 -8.43106
upperneck 53.0489 -6.49581 2.46218
head 25.0301 -4.08376 1.77241
rclavicle -1.35174e-014 -7.95139e-015
rhumerus -34.6325 39.8383 -107.286
rradius 52.7671
rwrist -6.75248
rhand -18.1404 -43.7372
rfingers 7.12502
rthumb 8.1348 -73.5606
lclavicle -1.35174e-014 -7.95139e-015
lhumerus -13.1278 -72.1513 86.6731
lradius 95.9817
lwrist 40.8095
lhand -15.0495 -24.3557
lfingers 7.12502
lthumb 11.117 5.32979
rfemur -56.1252 -2.38426 9.18701
rtibia 82.9722
rfoot -9.84377 -18.4235
rtoes -28.3441
lfemur -45.9353 -21.2864 -30.218
ltibia 55.1911
lfoot -22.7285 0.485172
ltoes 12.4682
571
root 0.552123 15.8342 3.86468 6.59528 -45.7728 12.2722
lowerback 0.341083 7.04288 8.04885
upperback 4.33023 9.36321 -3.29768
thorax 6.25187 5.12281 -7.33483
lowerneck -4.75407 -3.41921 -8.88083
upperneck 53.1395 -6.17265 2.54194
head 24.9721 -4.06443 1.98457
rclavicle 8.66701e-014 -5.08889e-014
rhumerus -35.3155 40.2393 -107.712
rradius 53.1544
rwrist -6.49268
rhand -18.1829 -43.8873
rfingers 7.12502
rthumb 8.09381 -73.7123
lclavicle 8.66701e-014 -5.08889e-014
lhumerus -14.9312 -71.9364 88.4628
lradius 95.9794
lwrist 40.3971
lhand -15.7489 -25.4308
lfingers 7.12502
lthumb 10.4423 4.28986
rfemur -56.5458 -2.50117 9.52291
rtibia 83.0876
rfoot -9.85183 -18.637
rtoes -27.8774
lfemur -46.4536 -21.3253 -29.84
ltibia 55.3095
lfoot -22.573 0.0620057
ltoes 12.742
572
root 0.550824 15.8375 3.87541 6.32828 -45.8574 12.6542
lowerback 0.26325 7.09422 7.71166
upperback 4.42512 9.43557 -3.36054
thorax 6.3639 5.15162 -7.19285
lowerneck -4.80874 -3.43722 -8.85256
upperneck 53.1518 -6.22971 2.59633
head 25.0266 -4.07256 2.00035
rclavicle -9.14409e-014 1.43125e-014
rhumerus -35.4117 40.1813 -107.762
rradius 53.631
rwrist -6.1859
rhand -18.3081 -43.4315
rfingers 7.12502
rthumb 7.97303 -73.2611
lclavicle -9.14409e-014 1.43125e-014
lhumerus -14.8017 -71.9109 88.3995
lradius 96.1114
lwrist 41.0535
lhand -11.3093 -25.0977
lfingers 7.12502
lthumb 14.7226 4.35947
rfemur -56.5122 -2.62669 9.21754
rtibia 83.0671
rfoot -10.0156 -18.4854
rtoes -27.7051
lfemur -46.3218 -21.4129 -30.0987
ltibia 55.222
lfoot -22.5802 -0.32421
ltoes 13.8643
